<svg width="500" height="500" viewBox="0 0 500 500" fill="none" xmlns="http://www.w3.org/2000/svg">
<g clip-path="url(#clip0_3739_1051)">
<path d="M500 500H0V0H500V500ZM218.852 91.2666L89.1699 388.771H156.554L184.778 322.405H313.188L341.413 388.771H410.831L281.149 91.2666H218.852ZM289.54 265.192H208.681L249.11 169.584L289.54 265.192Z" fill="url(#paint0_linear_3739_1051)"/>
<mask id="mask0_3739_1051" style="mask-type:luminance" maskUnits="userSpaceOnUse" x="0" y="0" width="501" height="209">
<path d="M500 166.352C443.527 181.513 386.191 192.641 328.42 199.714L281.15 91.2695H218.852L167.573 208.907C111.622 208.481 55.6375 204.286 0.000488281 196.295V0.00195312H500V166.352ZM264.456 205.874C253.978 206.611 243.491 207.216 232.999 207.688L249.111 169.587L264.456 205.874Z" fill="white"/>
</mask>
<g mask="url(#mask0_3739_1051)">
<path d="M250 500C388.071 500 500 388.071 500 250C500 111.929 388.071 0 250 0C111.929 0 0 111.929 0 250C0 388.071 111.929 500 250 500Z" fill="url(#paint1_linear_3739_1051)"/>
<path d="M250 500C388.071 500 500 388.071 500 250V0.000715256L250 0H-6.73633C-6.73633 0 0.000198364 180.898 0.000198364 250C0.000198364 388.071 111.929 500 250 500Z" fill="url(#paint2_linear_3739_1051)"/>
</g>
<path d="M250 241.923C331.898 241.923 398.289 190.001 398.289 125.953C398.289 61.9048 331.898 9.9834 250 9.9834C168.102 9.9834 101.711 61.9048 101.711 125.953C101.711 190.001 168.102 241.923 250 241.923Z" fill="url(#paint3_linear_3739_1051)"/>
<path d="M357.652 93.1543C362.443 120.303 370.428 128.287 397.576 133.078C370.428 137.869 362.443 145.854 357.652 173.002C352.862 145.854 344.877 137.869 317.729 133.078C344.877 128.287 352.862 120.303 357.652 93.1543Z" fill="url(#paint4_radial_3739_1051)"/>
<path opacity="0.9" d="M412.31 172.054C414.192 182.719 417.329 185.856 427.994 187.738C417.329 189.62 414.192 192.757 412.31 203.423C410.428 192.757 407.291 189.62 396.625 187.738C407.291 185.856 410.428 182.719 412.31 172.054Z" fill="white"/>
</g>
<defs>
<linearGradient id="paint0_linear_3739_1051" x1="0" y1="213.878" x2="0" y2="500" gradientUnits="userSpaceOnUse">
<stop stop-color="#D63200"/>
<stop offset="0.083" stop-color="#D12500"/>
<stop offset="0.166" stop-color="#C91400"/>
<stop offset="0.249" stop-color="#C40800"/>
<stop offset="0.332" stop-color="#BC0000"/>
<stop offset="0.448" stop-color="#AE0000"/>
<stop offset="0.581" stop-color="#A40000"/>
<stop offset="0.714" stop-color="#960002"/>
<stop offset="0.847" stop-color="#9F0100"/>
<stop offset="0.938" stop-color="#AF0000"/>
<stop offset="1" stop-color="#760002"/>
</linearGradient>
<linearGradient id="paint1_linear_3739_1051" x1="0" y1="0" x2="0" y2="299.43" gradientUnits="userSpaceOnUse">
<stop stop-color="#FFA600"/>
<stop offset="0.19" stop-color="#FFA600"/>
<stop offset="0.317" stop-color="#F88F00"/>
<stop offset="0.444" stop-color="#EE7405"/>
<stop offset="0.571" stop-color="#E5610C"/>
<stop offset="0.698" stop-color="#DF5315"/>
<stop offset="0.825" stop-color="#D7431B"/>
<stop offset="0.952" stop-color="#D13826"/>
<stop offset="1" stop-color="#CF3428"/>
</linearGradient>
<linearGradient id="paint2_linear_3739_1051" x1="0.000189833" y1="-1.66975e-06" x2="0.000189833" y2="299.43" gradientUnits="userSpaceOnUse">
<stop stop-color="#FFA600"/>
<stop offset="0.19" stop-color="#FFA600"/>
<stop offset="0.317" stop-color="#F88F00"/>
<stop offset="0.444" stop-color="#EE7405"/>
<stop offset="0.571" stop-color="#E5610C"/>
<stop offset="0.698" stop-color="#DF5315"/>
<stop offset="0.825" stop-color="#D7431B"/>
<stop offset="0.952" stop-color="#D13826"/>
<stop offset="1" stop-color="#CF3428"/>
</linearGradient>
<linearGradient id="paint3_linear_3739_1051" x1="-9.38474e-05" y1="9.9834" x2="-9.38474e-05" y2="155.658" gradientUnits="userSpaceOnUse">
<stop stop-color="white" stop-opacity="0.68"/>
<stop offset="1" stop-color="white" stop-opacity="0"/>
</linearGradient>
<radialGradient id="paint4_radial_3739_1051" cx="0" cy="0" r="1" gradientUnits="userSpaceOnUse" gradientTransform="translate(357.652 133.078) scale(39.924)">
<stop stop-color="white"/>
<stop offset="1" stop-color="white" stop-opacity="0.85"/>
</radialGradient>
<clipPath id="clip0_3739_1051">
<rect width="500" height="500" rx="250" fill="white"/>
</clipPath>
</defs>
</svg>
